<svg width="104" height="30" viewBox="0 0 104 30" fill="none" xmlns="http://www.w3.org/2000/svg">
<rect y="0.5" width="104" height="29" rx="14.5" fill="#ECFAEE"/>
<path d="M21.166 19.626C18.114 19.626 16.546 17.456 16.546 14.614C16.546 11.73 18.114 9.574 21.166 9.574C23.63 9.574 25.226 11.198 25.38 13.27H23.42C23.322 12.22 22.622 11.324 21.166 11.324C19.36 11.324 18.506 12.64 18.506 14.614C18.506 16.588 19.36 17.89 21.166 17.89C22.566 17.89 23.252 17.064 23.434 16.028H25.38C25.17 18.044 23.616 19.626 21.166 19.626ZM29.9158 19.626C27.5638 19.626 26.3738 18.03 26.3738 15.874C26.3738 13.718 27.5918 12.094 29.9158 12.094C32.2258 12.094 33.4438 13.718 33.4438 15.874C33.4438 18.016 32.2538 19.626 29.9158 19.626ZM29.9158 17.974C30.9658 17.974 31.5398 17.26 31.5398 15.874C31.5398 14.474 30.9658 13.746 29.9158 13.746C28.8518 13.746 28.2918 14.488 28.2918 15.874C28.2918 17.26 28.8658 17.974 29.9158 17.974ZM43.1225 12.094C44.7325 12.094 45.7545 13.116 45.7545 14.726V19.5H43.8785V15.258C43.8785 14.348 43.5285 13.802 42.6185 13.802C41.7365 13.802 41.2325 14.446 41.2325 15.468V19.5H39.3705V15.258C39.3705 14.348 39.0205 13.802 38.0965 13.802C37.2285 13.802 36.6265 14.432 36.6265 15.468V19.5H34.7505V12.22H36.4305L36.5705 13.046H36.6265C37.0325 12.5 37.6765 12.094 38.6705 12.094C39.6925 12.094 40.4345 12.486 40.8545 13.172H40.8965C41.2745 12.612 41.9885 12.094 43.1225 12.094ZM47.3423 22.706V12.22H49.0223L49.2183 13.004H49.2743C49.6383 12.528 50.2403 12.094 51.2903 12.094C53.1243 12.094 54.2723 13.634 54.2723 15.874C54.2723 18.03 53.1803 19.626 51.2903 19.626C50.2403 19.626 49.6383 19.192 49.2743 18.716H49.2183V22.706H47.3423ZM50.7583 17.974C51.9623 17.974 52.3683 17.008 52.3683 15.874C52.3683 14.726 51.9483 13.746 50.7583 13.746C49.5963 13.746 49.1483 14.726 49.1483 15.874C49.1483 17.008 49.5683 17.974 50.7583 17.974ZM55.5728 19.5V9.14H57.4488V19.5H55.5728ZM62.1397 19.626C59.8857 19.626 58.6257 17.974 58.6257 15.874C58.6257 13.802 59.7737 12.094 62.1117 12.094C64.2817 12.094 65.4997 13.662 65.4997 15.65V16.378H60.5437C60.5577 17.372 61.0617 18.072 62.1397 18.072C62.9797 18.072 63.4277 17.68 63.5677 17.232H65.4017C65.2057 18.548 64.0157 19.626 62.1397 19.626ZM60.5577 15.132H63.5817C63.5537 14.306 63.0917 13.662 62.1117 13.662C61.0617 13.662 60.5997 14.306 60.5577 15.132ZM69.7794 19.5C68.1694 19.5 67.4974 18.576 67.4974 17.288V13.816H66.3074V12.22H67.5674V10.302H69.3734V12.22H71.1234V13.816H69.3734V16.882C69.3734 17.568 69.6674 17.862 70.3114 17.862H71.1514V19.5H69.7794ZM75.7433 19.626C73.4893 19.626 72.2293 17.974 72.2293 15.874C72.2293 13.802 73.3773 12.094 75.7153 12.094C77.8853 12.094 79.1033 13.662 79.1033 15.65V16.378H74.1473C74.1613 17.372 74.6653 18.072 75.7433 18.072C76.5833 18.072 77.0313 17.68 77.1713 17.232H79.0053C78.8093 18.548 77.6193 19.626 75.7433 19.626ZM74.1613 15.132H77.1853C77.1573 14.306 76.6953 13.662 75.7153 13.662C74.6653 13.662 74.2033 14.306 74.1613 15.132ZM82.9909 19.626C81.1289 19.626 79.9949 18.086 79.9949 15.86C79.9949 13.69 81.0869 12.094 82.9909 12.094C84.0269 12.094 84.6289 12.528 84.9929 13.004H85.0489V9.14H86.9249V19.5H85.2449L85.0489 18.716H84.9929C84.6289 19.192 84.0269 19.626 82.9909 19.626ZM83.5089 17.974C84.6849 17.974 85.1189 16.994 85.1189 15.86C85.1189 14.726 84.6989 13.746 83.5089 13.746C82.3049 13.746 81.8989 14.712 81.8989 15.86C81.8989 16.994 82.3329 17.974 83.5089 17.974Z" fill="#1B6A28"/>
</svg>
