<svg width="106" height="30" viewBox="0 0 106 30" fill="none" xmlns="http://www.w3.org/2000/svg">
<rect y="0.5" width="106" height="29" rx="14.5" fill="#FBE9EE"/>
<path d="M17.106 19.5V9.7H19.038V19.5H17.106ZM20.9829 19.5V12.22H22.6629L22.8029 13.046H22.8589C23.2649 12.5 23.9369 12.094 24.9309 12.094C26.5409 12.094 27.5769 13.116 27.5769 14.726V19.5H25.7009V15.258C25.7009 14.348 25.2949 13.802 24.3569 13.802C23.4609 13.802 22.8589 14.432 22.8589 15.468V19.5H20.9829ZM32.3087 19.626C30.0267 19.626 28.7527 18.1 28.7527 15.86C28.7527 13.648 29.9847 12.094 32.2667 12.094C34.3667 12.094 35.4307 13.368 35.5287 14.992H33.6387C33.5687 14.25 33.0647 13.746 32.2667 13.746C31.2027 13.746 30.6707 14.502 30.6707 15.86C30.6707 17.232 31.2027 17.974 32.2667 17.974C33.0787 17.974 33.5687 17.484 33.6527 16.756H35.5427C35.4307 18.394 34.3667 19.626 32.3087 19.626ZM39.9783 19.626C37.6263 19.626 36.4363 18.03 36.4363 15.874C36.4363 13.718 37.6543 12.094 39.9783 12.094C42.2883 12.094 43.5063 13.718 43.5063 15.874C43.5063 18.016 42.3163 19.626 39.9783 19.626ZM39.9783 17.974C41.0283 17.974 41.6023 17.26 41.6023 15.874C41.6023 14.474 41.0283 13.746 39.9783 13.746C38.9143 13.746 38.3543 14.488 38.3543 15.874C38.3543 17.26 38.9283 17.974 39.9783 17.974ZM53.185 12.094C54.795 12.094 55.817 13.116 55.817 14.726V19.5H53.941V15.258C53.941 14.348 53.591 13.802 52.681 13.802C51.799 13.802 51.295 14.446 51.295 15.468V19.5H49.433V15.258C49.433 14.348 49.083 13.802 48.159 13.802C47.291 13.802 46.689 14.432 46.689 15.468V19.5H44.813V12.22H46.493L46.633 13.046H46.689C47.095 12.5 47.739 12.094 48.733 12.094C49.755 12.094 50.497 12.486 50.917 13.172H50.959C51.337 12.612 52.051 12.094 53.185 12.094ZM57.4048 22.706V12.22H59.0848L59.2808 13.004H59.3368C59.7008 12.528 60.3028 12.094 61.3528 12.094C63.1868 12.094 64.3348 13.634 64.3348 15.874C64.3348 18.03 63.2428 19.626 61.3528 19.626C60.3028 19.626 59.7008 19.192 59.3368 18.716H59.2808V22.706H57.4048ZM60.8208 17.974C62.0248 17.974 62.4308 17.008 62.4308 15.874C62.4308 14.726 62.0108 13.746 60.8208 13.746C59.6588 13.746 59.2108 14.726 59.2108 15.874C59.2108 17.008 59.6308 17.974 60.8208 17.974ZM65.6353 19.5V9.14H67.5113V19.5H65.6353ZM72.2022 19.626C69.9482 19.626 68.6882 17.974 68.6882 15.874C68.6882 13.802 69.8362 12.094 72.1742 12.094C74.3442 12.094 75.5622 13.662 75.5622 15.65V16.378H70.6062C70.6202 17.372 71.1242 18.072 72.2022 18.072C73.0422 18.072 73.4902 17.68 73.6302 17.232H75.4642C75.2682 18.548 74.0782 19.626 72.2022 19.626ZM70.6202 15.132H73.6442C73.6162 14.306 73.1542 13.662 72.1742 13.662C71.1242 13.662 70.6622 14.306 70.6202 15.132ZM79.8419 19.5C78.2319 19.5 77.5599 18.576 77.5599 17.288V13.816H76.3699V12.22H77.6299V10.302H79.4359V12.22H81.1859V13.816H79.4359V16.882C79.4359 17.568 79.7299 17.862 80.3739 17.862H81.2139V19.5H79.8419ZM85.8058 19.626C83.5518 19.626 82.2918 17.974 82.2918 15.874C82.2918 13.802 83.4398 12.094 85.7778 12.094C87.9478 12.094 89.1658 13.662 89.1658 15.65V16.378H84.2098C84.2238 17.372 84.7278 18.072 85.8058 18.072C86.6458 18.072 87.0938 17.68 87.2338 17.232H89.0678C88.8718 18.548 87.6818 19.626 85.8058 19.626ZM84.2238 15.132H87.2478C87.2198 14.306 86.7578 13.662 85.7778 13.662C84.7278 13.662 84.2658 14.306 84.2238 15.132Z" fill="#A01233"/>
</svg>
