<svg width="106" height="30" viewBox="0 0 106 30" fill="none" xmlns="http://www.w3.org/2000/svg">
<rect y="0.5" width="106" height="29" rx="14.5" fill="#F1F1F4"/>
<path d="M17.106 19.5V9.7H19.038V19.5H17.106ZM20.9829 19.5V12.22H22.6629L22.8029 13.046H22.8589C23.2649 12.5 23.9369 12.094 24.9309 12.094C26.5409 12.094 27.5769 13.116 27.5769 14.726V19.5H25.7009V15.258C25.7009 14.348 25.2949 13.802 24.3569 13.802C23.4609 13.802 22.8589 14.432 22.8589 15.468V19.5H20.9829ZM33.1645 22.706V12.22H34.8445L35.0405 13.004H35.0965C35.4605 12.528 36.0625 12.094 37.1125 12.094C38.9465 12.094 40.0945 13.634 40.0945 15.874C40.0945 18.03 39.0025 19.626 37.1125 19.626C36.0625 19.626 35.4605 19.192 35.0965 18.716H35.0405V22.706H33.1645ZM36.5805 17.974C37.7845 17.974 38.1905 17.008 38.1905 15.874C38.1905 14.726 37.7705 13.746 36.5805 13.746C35.4185 13.746 34.9705 14.726 34.9705 15.874C34.9705 17.008 35.3905 17.974 36.5805 17.974ZM41.395 19.5V12.22H42.977L43.117 13.326H43.173C43.495 12.64 44.139 12.108 45.063 12.108H45.595V13.844H44.937C43.817 13.844 43.173 14.614 43.173 15.93V19.5H41.395ZM49.8904 19.626C47.5384 19.626 46.3484 18.03 46.3484 15.874C46.3484 13.718 47.5664 12.094 49.8904 12.094C52.2004 12.094 53.4184 13.718 53.4184 15.874C53.4184 18.016 52.2284 19.626 49.8904 19.626ZM49.8904 17.974C50.9404 17.974 51.5144 17.26 51.5144 15.874C51.5144 14.474 50.9404 13.746 49.8904 13.746C48.8264 13.746 48.2664 14.488 48.2664 15.874C48.2664 17.26 48.8404 17.974 49.8904 17.974ZM57.7771 22.832C55.8451 22.832 54.5711 21.782 54.5291 20.214H56.3631C56.4191 20.76 56.9231 21.222 57.7771 21.222C58.8551 21.222 59.3731 20.62 59.3731 19.836V18.716H59.3171C58.9531 19.192 58.3511 19.626 57.3151 19.626C55.4111 19.626 54.3191 18.03 54.3191 15.874C54.3191 13.634 55.4531 12.094 57.3151 12.094C58.3511 12.094 58.9531 12.528 59.3171 13.004H59.3731L59.5691 12.22H61.2491V19.864C61.2491 21.642 59.8211 22.832 57.7771 22.832ZM57.8331 17.974C59.0231 17.974 59.4431 17.008 59.4431 15.874C59.4431 14.726 59.0091 13.746 57.8331 13.746C56.6571 13.746 56.2231 14.726 56.2231 15.874C56.2231 17.008 56.6291 17.974 57.8331 17.974ZM62.8188 19.5V12.22H64.4008L64.5408 13.326H64.5968C64.9188 12.64 65.5628 12.108 66.4868 12.108H67.0188V13.844H66.3608C65.2408 13.844 64.5968 14.614 64.5968 15.93V19.5H62.8188ZM71.2862 19.626C69.0322 19.626 67.7722 17.974 67.7722 15.874C67.7722 13.802 68.9202 12.094 71.2582 12.094C73.4282 12.094 74.6462 13.662 74.6462 15.65V16.378H69.6902C69.7042 17.372 70.2082 18.072 71.2862 18.072C72.1262 18.072 72.5742 17.68 72.7142 17.232H74.5482C74.3522 18.548 73.1622 19.626 71.2862 19.626ZM69.7042 15.132H72.7282C72.7002 14.306 72.2382 13.662 71.2582 13.662C70.2082 13.662 69.7462 14.306 69.7042 15.132ZM78.7018 19.626C76.5878 19.626 75.5798 18.576 75.5378 17.05H77.4138C77.4138 17.61 77.8478 18.044 78.7018 18.044C79.5278 18.044 79.9058 17.75 79.9058 17.372C79.9058 17.008 79.6398 16.784 79.0658 16.672L77.8898 16.448C76.7138 16.224 75.7618 15.58 75.7618 14.236C75.7618 13.046 76.8118 12.094 78.6598 12.094C80.4798 12.094 81.6278 13.13 81.6278 14.516H79.7798C79.7798 14.012 79.4018 13.592 78.6318 13.592C78.0018 13.592 77.5958 13.858 77.5958 14.25C77.5958 14.614 77.8758 14.81 78.3378 14.908L79.6678 15.146C80.8438 15.384 81.7958 15.916 81.7958 17.358C81.7958 18.814 80.4658 19.626 78.7018 19.626ZM85.8522 19.626C83.7382 19.626 82.7302 18.576 82.6882 17.05H84.5642C84.5642 17.61 84.9982 18.044 85.8522 18.044C86.6782 18.044 87.0562 17.75 87.0562 17.372C87.0562 17.008 86.7902 16.784 86.2162 16.672L85.0402 16.448C83.8642 16.224 82.9122 15.58 82.9122 14.236C82.9122 13.046 83.9622 12.094 85.8102 12.094C87.6302 12.094 88.7782 13.13 88.7782 14.516H86.9302C86.9302 14.012 86.5522 13.592 85.7822 13.592C85.1522 13.592 84.7462 13.858 84.7462 14.25C84.7462 14.614 85.0262 14.81 85.4882 14.908L86.8182 15.146C87.9942 15.384 88.9462 15.916 88.9462 17.358C88.9462 18.814 87.6162 19.626 85.8522 19.626Z" fill="#615E7B"/>
</svg>
